# xmcd
#
# Track frame offsets: 
#        150
#        9455
#        21474
#        33633
#        45709
#        59781
#        69725
#        81872
#        92993
#        104619
#        116284
#        127677
#        138957
#        150913
#
# Disc length: 2167 seconds
#
# Revision: 0
# Processed by: cddbd v1.5.2PL0 Copyright (c) Steve Scherf et al.
# Submitted via: ExactAudioCopyFreeDBPlugin 1.0
#
DISCID=ba08750e
DTITLE=Adam Chowning and Megan Lynch Chowning - Face to Face
DYEAR=2015
DGENRE=Bluegrass
TTITLE0=Chinquapin Hunitng
TTITLE1=Needlecase
TTITLE2=Sandy River Belle
TTITLE3=Kitchen Girl
TTITLE4=John Brown's Dream
TTITLE5=Cumberland Gap
TTITLE6=New Five Cents
TTITLE7=June Apple
TTITLE8=Temperance Reel
TTITLE9=West Fork Gals
TTITLE10=Boatman
TTITLE11=Woodchopper's Reel
TTITLE12=Fortune
TTITLE13=Seneca Square Dance
EXTD=
EXTT0=
EXTT1=
EXTT2=
EXTT3=
EXTT4=
EXTT5=
EXTT6=
EXTT7=
EXTT8=
EXTT9=
EXTT10=
EXTT11=
EXTT12=
EXTT13=
PLAYORDER=
